<?xml version="1.0" encoding="UTF-8" standalone="no"?>
<svg
   width="348.79794"
   zoomAndPan="magnify"
   viewBox="0 0 261.59846 121.26562"
   height="161.6875"
   preserveAspectRatio="xMidYMid"
   version="1.0"
   id="svg186"
   sodipodi:docname="logoFoot.svg"
   inkscape:version="1.2.2 (b0a84865, 2022-12-01)"
   xmlns:inkscape="http://www.inkscape.org/namespaces/inkscape"
   xmlns:sodipodi="http://sodipodi.sourceforge.net/DTD/sodipodi-0.dtd"
   xmlns:xlink="http://www.w3.org/1999/xlink"
   xmlns="http://www.w3.org/2000/svg"
   xmlns:svg="http://www.w3.org/2000/svg">
  <sodipodi:namedview
     id="namedview188"
     pagecolor="#ffffff"
     bordercolor="#000000"
     borderopacity="0.25"
     inkscape:showpageshadow="2"
     inkscape:pageopacity="0.0"
     inkscape:pagecheckerboard="0"
     inkscape:deskcolor="#d1d1d1"
     showgrid="false"
     inkscape:zoom="1.3289991"
     inkscape:cx="188.11149"
     inkscape:cy="80.511718"
     inkscape:window-width="1290"
     inkscape:window-height="456"
     inkscape:window-x="222"
     inkscape:window-y="38"
     inkscape:window-maximized="0"
     inkscape:current-layer="svg186" />
  <defs
     id="defs22">
    <linearGradient
       inkscape:collect="always"
       id="linearGradient7915">
      <stop
         style="stop-color:#1e3148;stop-opacity:1;"
         offset="0"
         id="stop7911" />
      <stop
         style="stop-color:#1e3148;stop-opacity:0;"
         offset="1"
         id="stop7913" />
    </linearGradient>
    <g
       id="g2" />
    <clipPath
       id="23ef096984">
      <path
         d="M 37.5,126.86719 H 159 v 121.5 H 37.5 Z m 0,0"
         clip-rule="nonzero"
         id="path4" />
    </clipPath>
    <clipPath
       id="b4c0673a3b">
      <path
         d="m 158.78906,187.52344 c 0,33.48828 -27.14453,60.63281 -60.63281,60.63281 -33.488281,0 -60.632812,-27.14453 -60.632812,-60.63281 0,-33.48438 27.144531,-60.63281 60.632812,-60.63281 33.48828,0 60.63281,27.14843 60.63281,60.63281 z m 0,0"
         clip-rule="nonzero"
         id="path7" />
    </clipPath>
    <clipPath
       id="2833021b4b">
      <path
         d="m 70,127.10938 h 89 v 82.27734 H 70 Z m 0,0"
         clip-rule="nonzero"
         id="path10" />
    </clipPath>
    <clipPath
       id="967a634dd1">
      <path
         d="m 158.78906,187.52344 c 0,33.48828 -27.14453,60.63281 -60.63281,60.63281 -33.488281,0 -60.632812,-27.14453 -60.632812,-60.63281 0,-33.48438 27.144531,-60.63281 60.632812,-60.63281 33.48828,0 60.63281,27.14843 60.63281,60.63281 z m 0,0"
         clip-rule="nonzero"
         id="path13" />
    </clipPath>
    <clipPath
       id="5822047909">
      <path
         d="M 37.5,168.54687 H 129 v 79.82032 H 37.5 Z m 0,0"
         clip-rule="nonzero"
         id="path16" />
    </clipPath>
    <clipPath
       id="d6f93eaafa">
      <path
         d="m 158.78906,187.52344 c 0,33.48828 -27.14453,60.63281 -60.63281,60.63281 -33.488281,0 -60.632812,-27.14453 -60.632812,-60.63281 0,-33.48438 27.144531,-60.63281 60.632812,-60.63281 33.48828,0 60.63281,27.14843 60.63281,60.63281 z m 0,0"
         clip-rule="nonzero"
         id="path19" />
    </clipPath>
    <linearGradient
       inkscape:collect="always"
       xlink:href="#linearGradient7915"
       id="linearGradient7917"
       x1="200.58246"
       y1="182.36881"
       x2="233.87933"
       y2="182.36881"
       gradientUnits="userSpaceOnUse" />
    <meshgradient
       inkscape:collect="always"
       id="meshgradient7919"
       gradientUnits="userSpaceOnUse"
       x="200.58246"
       y="163.42349">
      <meshrow
         id="meshrow7921">
        <meshpatch
           id="meshpatch7923">
          <stop
             path="c 11.099,0  22.1979,0  33.2969,0"
             style="stop-color:#ffffff;stop-opacity:1"
             id="stop7925" />
          <stop
             path="c 0,12.6302  0,25.2604  0,37.8906"
             style="stop-color:#1e3148;stop-opacity:1"
             id="stop7927" />
          <stop
             path="c -11.099,0  -22.1979,0  -33.2969,0"
             style="stop-color:#ffffff;stop-opacity:1"
             id="stop7929" />
          <stop
             path="c 0,-12.6302  0,-25.2604  0,-37.8906"
             style="stop-color:#1e3148;stop-opacity:1"
             id="stop7931" />
        </meshpatch>
      </meshrow>
    </meshgradient>
  </defs>
  <g
     clip-path="url(#23ef096984)"
     id="g28"
     transform="translate(-37.523438,-126.89063)">
    <g
       clip-path="url(#b4c0673a3b)"
       id="g26">
      <path
         fill="#d2db1b"
         d="m 158.78906,187.52344 c 0,33.48828 -27.14453,60.63281 -60.63281,60.63281 -33.488281,0 -60.632812,-27.14453 -60.632812,-60.63281 0,-33.48438 27.144531,-60.63281 60.632812,-60.63281 33.48828,0 60.63281,27.14843 60.63281,60.63281"
         fill-opacity="1"
         fill-rule="nonzero"
         id="path24" />
    </g>
  </g>
  <g
     clip-path="url(#2833021b4b)"
     id="g34"
     transform="translate(-37.523438,-126.89063)">
    <g
       clip-path="url(#967a634dd1)"
       id="g32">
      <path
         fill="#ffffff"
         d="m 161.03516,209.38672 c -2.13672,0 -3.89844,-1.70703 -3.94922,-3.86328 -0.57813,-23.36328 -14.67188,-42.25 -41.89063,-56.13282 -20.769529,-10.59375 -41.558591,-14.07421 -41.769529,-14.10156 -2.15625,-0.35547 -3.621093,-2.38672 -3.265625,-4.54297 0.351563,-2.15625 2.382813,-3.62109 4.539063,-3.26562 0.902343,0.14453 22.234375,3.71094 44.093751,14.86328 29.57812,15.08594 45.55078,36.87109 46.19922,62.98828 0.0547,2.1875 -1.67578,4 -3.85938,4.05469 h -0.0977"
         fill-opacity="1"
         fill-rule="nonzero"
         id="path30" />
    </g>
  </g>
  <g
     clip-path="url(#5822047909)"
     id="g40"
     transform="translate(-37.523438,-126.89063)">
    <g
       clip-path="url(#d6f93eaafa)"
       id="g38">
      <path
         fill="#ffffff"
         d="m 124.50391,250.72266 c -0.21485,0 -0.42578,-0.0195 -0.64453,-0.0469 -0.89454,-0.15234 -22.23047,-3.71875 -44.089849,-14.86719 -29.578125,-15.08984 -45.554687,-36.87109 -46.195312,-62.99218 -0.05469,-2.17969 1.667969,-3.99219 3.855469,-4.04688 h 0.09375 c 2.136718,0 3.898437,1.70703 3.953124,3.85547 0.574219,23.36719 14.671876,42.25 41.886719,56.14062 20.769529,10.59375 41.562499,14.06641 41.769529,14.10157 2.15625,0.34765 3.61719,2.38281 3.26953,4.53515 -0.32031,1.94532 -1.99609,3.32032 -3.89843,3.32032"
         fill-opacity="1"
         fill-rule="nonzero"
         id="path36" />
    </g>
  </g>
  <path
     stroke-linecap="butt"
     fill="none"
     stroke-linejoin="miter"
     d="m 17.816406,49.007814 v -18.04297 h 38.187503 v 18.04297 H 48.433596 V 73.796878 H 25.246094 V 49.007814 Z m 41.718753,6.539063 c 0,-6.308594 1.433594,-11.050782 4.300782,-14.23047 2.874999,-3.1875 7.578125,-4.78125 14.105469,-4.78125 6.527344,0 11.07422,1.328124 13.636723,3.980469 2.562495,2.644531 3.84375,6.980469 3.84375,13.015626 l -0.300787,4.769531 H 78.000004 v 2.101563 c 1.042969,0.253906 2.550782,0.378906 4.527344,0.378906 4.21875,0 7.628907,-0.1875 10.230468,-0.558594 l 1.304692,-0.183593 v 11.65625 c -0.33594,0.199219 -0.863287,0.457031 -1.58985,0.769532 -0.718747,0.316406 -2.441404,0.718749 -5.175778,1.210937 -2.726563,0.496094 -5.757813,0.742188 -9.097657,0.742188 -6.621095,0 -11.38672,-1.566407 -14.304689,-4.707032 -2.90625,-3.148437 -4.359375,-7.871094 -4.359375,-14.164063 z m 17.54297,-2.773438 v 2.421875 h 3.527344 v -2.421875 c 0,-0.53125 -0.175782,-0.960937 -0.53125,-1.285156 -0.34375,-0.332031 -0.777344,-0.500001 -1.300781,-0.500001 -0.515625,0 -0.929688,0.16797 -1.242188,0.500001 -0.300781,0.324219 -0.453125,0.753906 -0.453125,1.285156 z m 39.367191,1.378907 V 73.796878 H 98.902348 V 37.156251 h 15.558592 l 0.6211,4.523437 c 0.16015,-0.453124 0.52734,-1.007812 1.10547,-1.664062 0.58203,-0.664063 1.20312,-1.226563 1.85937,-1.679688 1.82812,-1.199219 4.25,-1.800781 7.26562,-1.800781 4.04688,0 7.09376,1.121094 9.14064,3.359375 2.05077,2.230469 3.07421,5.472656 3.07421,9.734375 v 24.167971 h -17.5586 V 54.152346 c 0,-0.503907 -0.17577,-0.929688 -0.52734,-1.269532 -0.34374,-0.355469 -0.76953,-0.53125 -1.27344,-0.53125 -0.49218,0 -0.90624,0.175781 -1.23828,0.53125 -0.32421,0.339844 -0.48437,0.765625 -0.48437,1.269532 z m 33.78125,-13.953127 c -3.13672,0 -5.45313,-0.621093 -6.94531,-1.863281 -1.48438,-1.242188 -2.22656,-3.222657 -2.22656,-5.94922 0,-2.722656 0.7539,-4.6875 2.25781,-5.886718 1.51172,-1.199219 3.81641,-1.800782 6.91406,-1.800782 6.19531,0 9.29297,2.503907 9.29297,7.507813 0,2.84375 -0.76562,4.886719 -2.29688,6.128907 -1.52734,1.242188 -3.85546,1.863281 -6.99609,1.863281 z M 141.0547,73.796878 V 41.621094 h 18.46484 v 32.175784 z m 38.80859,-37.261721 c 3.25781,0 6.19922,0.1875 8.82422,0.558593 2.63282,0.375001 4.44531,0.746094 5.43359,1.121094 l 1.42188,0.558594 v 15.500001 c -2.80469,-1.453125 -6.99609,-2.179687 -12.57813,-2.179687 v 1.5 c 5.12891,0.492187 8.64063,1.382812 10.53516,2.664063 1.89844,1.281249 2.84766,3.617187 2.84766,7.007812 0,3.390626 -1.26172,6.097657 -3.78516,8.125001 -2.51172,2.019531 -6.91016,3.027344 -13.19922,3.027344 -3.34765,0 -6.32421,-0.1875 -8.92968,-0.558594 -2.60157,-0.375 -4.37892,-0.746094 -5.32813,-1.121094 l -1.42187,-0.542969 V 58.738283 c 1.15233,0.574218 2.93749,1.101562 5.35937,1.574219 2.42188,0.472656 4.91406,0.710938 7.47656,0.710938 v -1.484376 c -4.42969,-0.410156 -7.78125,-1.425781 -10.05078,-3.039063 -2.26953,-1.617187 -3.40625,-4.230468 -3.40625,-7.839843 0,-3.613282 1.38281,-6.535158 4.14844,-8.765626 2.77344,-2.238281 6.99219,-3.359375 12.65234,-3.359375 z m 28.94923,3.664062 c -3.14063,0 -5.45704,-0.621093 -6.94923,-1.863281 -1.48437,-1.242188 -2.22656,-3.222657 -2.22656,-5.94922 0,-2.722656 0.75391,-4.6875 2.25782,-5.886718 1.51171,-1.199219 3.82031,-1.800782 6.91797,-1.800782 6.1953,0 9.29296,2.503907 9.29296,7.507813 0,2.84375 -0.76953,4.886719 -2.30078,6.128907 -1.52344,1.242188 -3.85547,1.863281 -6.99218,1.863281 z m -9.17579,33.597659 V 41.621094 h 18.46875 v 32.175784 z m 58.39454,-23.429689 -0.30078,7.628907 1.54296,-0.07422 v 14.074219 c -0.74609,0.625 -2.02734,1.1875 -3.84375,1.679687 -1.81641,0.496095 -3.53124,0.742188 -5.14843,0.742188 -1.61329,0 -2.89454,-0.144531 -3.84375,-0.4375 -0.94922,-0.28125 -1.64844,-0.601562 -2.10548,-0.953125 -0.45312,-0.355468 -0.80468,-0.757813 -1.05858,-1.210937 -0.3711,-0.66797 -0.5586,-1.226563 -0.5586,-1.679688 -2.26953,2.855469 -5.88282,4.28125 -10.83594,4.28125 -6.82422,0 -10.23438,-2.890625 -10.23438,-8.671875 0,-3.480469 1.32423,-5.953126 3.96485,-7.41797 2.64453,-1.460937 7.27344,-2.339844 13.88281,-2.632813 0,-1.441406 -1.58984,-2.164062 -4.76953,-2.164062 -2.14844,0 -4.20703,0.269532 -6.17578,0.804687 -1.95703,0.531251 -3.37109,1.066407 -4.23828,1.601563 l -1.35937,0.820313 V 40.441405 c 0.37109,-0.285156 0.92577,-0.640624 1.66406,-1.078125 0.74609,-0.433594 2.5,-1.011718 5.26562,-1.738281 2.77734,-0.726562 5.81641,-1.089844 9.1289,-1.089844 6.60939,0 11.4297,1.121094 14.46876,3.359376 3.03516,2.230468 4.55469,5.722656 4.55469,10.472656 z m -17.54298,9.855469 v -2.484375 l -3.53906,1 v 1.484375 c 0,0.535157 0.17579,0.96875 0.52735,1.300781 0.35547,0.332032 0.78906,0.500001 1.30078,0.500001 0.52734,0 0.9414,-0.167969 1.24218,-0.500001 0.31251,-0.332031 0.46875,-0.765624 0.46875,-1.300781 z m 0,0"
     stroke="#ffffff"
     stroke-width="4.65"
     stroke-opacity="1"
     stroke-miterlimit="4"
     id="path42" />
  <g
     fill="#1e3148"
     fill-opacity="1"
     id="g50"
     transform="translate(-37.523438,-126.89063)">
    <g
       transform="translate(53.538126,200.68912)"
       id="g48">
      <g
         id="g46">
        <path
           d="M 1.796875,-24.796875 V -42.84375 h 38.1875 v 18.046875 h -7.5625 V 0 h -23.1875 v -24.796875 z m 0,0"
           id="path44" />
      </g>
    </g>
  </g>
  <g
     fill="#1e3148"
     fill-opacity="1"
     id="g58"
     transform="translate(-37.523438,-126.89063)">
    <g
       transform="translate(95.258798,200.68912)"
       id="g56">
      <g
         id="g54">
        <path
           d="m 1.796875,-18.25 c 0,-6.3125 1.4375,-11.054688 4.3125,-14.234375 2.875,-3.1875 7.578125,-4.78125 14.109375,-4.78125 6.53125,0 11.078125,1.324219 13.640625,3.96875 2.5625,2.648437 3.84375,6.984375 3.84375,13.015625 L 37.390625,-15.5 H 20.28125 v 2.109375 c 1.03125,0.25 2.535156,0.375 4.515625,0.375 4.21875,0 7.628906,-0.1875 10.234375,-0.5625 l 1.296875,-0.1875 v 11.65625 c -0.324219,0.210937 -0.851563,0.46875 -1.578125,0.78125 -0.71875,0.304687 -2.445312,0.703125 -5.171875,1.203125 -2.730469,0.5 -5.773437,0.75 -9.125,0.75 -6.605469,0 -11.367187,-1.566406 -14.28125,-4.703125 -2.917969,-3.144531 -4.375,-7.867187 -4.375,-14.171875 z m 17.546875,-2.765625 v 2.421875 H 22.875 v -2.421875 c 0,-0.539063 -0.179688,-0.972656 -0.53125,-1.296875 -0.34375,-0.332031 -0.777344,-0.5 -1.296875,-0.5 -0.511719,0 -0.921875,0.167969 -1.234375,0.5 -0.3125,0.324219 -0.46875,0.757812 -0.46875,1.296875 z m 0,0"
           id="path52" />
      </g>
    </g>
  </g>
  <g
     fill="#1e3148"
     fill-opacity="1"
     id="g66"
     transform="translate(-37.523438,-126.89063)">
    <g
       transform="translate(134.62377,200.68912)"
       id="g64">
      <g
         id="g62">
        <path
           d="M 19.34375,-19.65625 V 0 H 1.796875 v -36.640625 h 15.5625 l 0.625,4.53125 c 0.164063,-0.457031 0.535156,-1.015625 1.109375,-1.671875 0.582031,-0.664062 1.203125,-1.226562 1.859375,-1.6875 1.820313,-1.195312 4.238281,-1.796875 7.25,-1.796875 4.050781,0 7.097656,1.121094 9.140625,3.359375 2.050781,2.230469 3.078125,5.46875 3.078125,9.71875 V 0 H 22.875 v -19.65625 c 0,-0.488281 -0.179688,-0.910156 -0.53125,-1.265625 -0.34375,-0.351563 -0.765625,-0.53125 -1.265625,-0.53125 -0.492187,0 -0.902344,0.179687 -1.234375,0.53125 -0.335938,0.355469 -0.5,0.777344 -0.5,1.265625 z m 0,0"
           id="path60" />
      </g>
    </g>
  </g>
  <g
     fill="#1e3148"
     fill-opacity="1"
     id="g74"
     transform="translate(-37.523438,-126.89063)">
    <g
       transform="translate(176.7784,200.68912)"
       id="g72">
      <g
         id="g70">
        <path
           d="m 10.96875,-33.609375 c -3.136719,0 -5.449219,-0.617187 -6.9375,-1.859375 -1.492188,-1.238281 -2.234375,-3.222656 -2.234375,-5.953125 0,-2.726563 0.753906,-4.691406 2.265625,-5.890625 1.507812,-1.195312 3.8125,-1.796875 6.90625,-1.796875 6.207031,0 9.3125,2.5 9.3125,7.5 0,2.855469 -0.765625,4.902344 -2.296875,6.140625 -1.53125,1.242188 -3.871094,1.859375 -7.015625,1.859375 z M 1.796875,0 V -32.171875 H 20.28125 V 0 Z m 0,0"
           id="path68" />
      </g>
    </g>
  </g>
  <g
     fill="#1e3148"
     fill-opacity="1"
     id="g82"
     transform="translate(-37.523438,-126.89063)"
     style="stroke-width:0.99974998;stroke-dasharray:none;fill-opacity:1;fill:url(#meshgradient7919)">
    <g
       transform="translate(198.78558,200.68912)"
       id="g80"
       style="stroke-width:0.99974998;stroke-dasharray:none;fill-opacity:1.0;fill:url(#linearGradient7917)">
      <g
         id="g78"
         style="stroke-width:0.99974998;stroke-dasharray:none;fill-opacity:1.0;fill:url(#linearGradient7917)">
        <path
           d="m 18.59375,-37.265625 c 3.269531,0 6.21875,0.1875 8.84375,0.5625 2.625,0.375 4.429688,0.746094 5.421875,1.109375 l 1.421875,0.5625 v 15.5 c -2.8125,-1.445312 -7.007812,-2.171875 -12.578125,-2.171875 v 1.484375 c 5.125,0.5 8.632813,1.390625 10.53125,2.671875 1.90625,1.28125 2.859375,3.621094 2.859375,7.015625 0,3.386719 -1.261719,6.09375 -3.78125,8.125 C 28.789062,-0.382812 24.390625,0.625 18.109375,0.625 14.753906,0.625 11.773438,0.4375 9.171875,0.0625 6.566406,-0.3125 4.789062,-0.679688 3.84375,-1.046875 l -1.421875,-0.5625 V -15.0625 c 1.15625,0.574219 2.941406,1.101562 5.359375,1.578125 2.414062,0.480469 4.90625,0.71875 7.46875,0.71875 v -1.5 c -4.417969,-0.40625 -7.765625,-1.414063 -10.046875,-3.03125 -2.273437,-1.613281 -3.40625,-4.226563 -3.40625,-7.84375 0,-3.613281 1.382813,-6.535156 4.15625,-8.765625 2.769531,-2.238281 6.984375,-3.359375 12.640625,-3.359375 z m 0,0"
           id="path76"
           style="stroke-width:0.99974998;stroke-dasharray:none;fill-opacity:1.0;fill:url(#linearGradient7917)" />
      </g>
    </g>
  </g>
  <g
     fill="#1e3148"
     fill-opacity="1"
     id="g90"
     transform="translate(-37.523438,-126.89063)">
    <g
       transform="translate(235.36091,200.68912)"
       id="g88">
      <g
         id="g86">
        <path
           d="m 10.96875,-33.609375 c -3.136719,0 -5.449219,-0.617187 -6.9375,-1.859375 -1.492188,-1.238281 -2.234375,-3.222656 -2.234375,-5.953125 0,-2.726563 0.753906,-4.691406 2.265625,-5.890625 1.507812,-1.195312 3.8125,-1.796875 6.90625,-1.796875 6.207031,0 9.3125,2.5 9.3125,7.5 0,2.855469 -0.765625,4.902344 -2.296875,6.140625 -1.53125,1.242188 -3.871094,1.859375 -7.015625,1.859375 z M 1.796875,0 V -32.171875 H 20.28125 V 0 Z m 0,0"
           id="path84" />
      </g>
    </g>
  </g>
  <g
     fill="#1e3148"
     fill-opacity="1"
     id="g98"
     transform="translate(-37.523438,-126.89063)">
    <g
       transform="translate(257.3681,200.68912)"
       id="g96">
      <g
         id="g94">
        <path
           d="m 38.1875,-23.4375 -0.3125,7.625 1.5625,-0.0625 v 14.078125 c -0.75,0.617187 -2.039062,1.171875 -3.859375,1.671875 -1.8125,0.5 -3.527344,0.75 -5.140625,0.75 -1.605469,0 -2.886719,-0.148438 -3.84375,-0.4375 C 25.644531,-0.101562 24.941406,-0.421875 24.484375,-0.765625 24.035156,-1.117188 23.6875,-1.523438 23.4375,-1.984375 23.0625,-2.640625 22.875,-3.195312 22.875,-3.65625 20.601562,-0.800781 16.988281,0.625 12.03125,0.625 5.207031,0.625 1.796875,-2.269531 1.796875,-8.0625 c 0,-3.46875 1.320313,-5.9375 3.96875,-7.40625 2.644531,-1.46875 7.273437,-2.347656 13.890625,-2.640625 0,-1.445313 -1.59375,-2.171875 -4.78125,-2.171875 -2.148438,0 -4.203125,0.273438 -6.171875,0.8125 -1.960937,0.542969 -3.371094,1.078125 -4.234375,1.609375 l -1.375,0.8125 v -16.3125 c 0.375,-0.289063 0.929688,-0.648437 1.671875,-1.078125 0.75,-0.4375 2.507813,-1.015625 5.28125,-1.734375 2.769531,-0.726563 5.804687,-1.09375 9.109375,-1.09375 6.613281,0 11.4375,1.121094 14.46875,3.359375 3.039062,2.230469 4.5625,5.71875 4.5625,10.46875 z m -17.546875,9.859375 V -16.0625 l -3.53125,1 v 1.484375 c 0,0.542969 0.175781,0.980469 0.53125,1.3125 0.351563,0.324219 0.785156,0.484375 1.296875,0.484375 0.519531,0 0.929688,-0.160156 1.234375,-0.484375 0.3125,-0.332031 0.46875,-0.769531 0.46875,-1.3125 z m 0,0"
           id="path92" />
      </g>
    </g>
  </g>
  <g
     fill="#1e3148"
     fill-opacity="1"
     id="g106"
     transform="translate(-37.523438,-126.89063)"
     style="fill:#ffffff">
    <g
       transform="translate(151.21641,229.78913)"
       id="g104"
       style="fill:#ffffff">
      <g
         id="g102"
         style="fill:#ffffff">
        <path
           d="M 5.078125,0 V -13.140625 H 0.59375 v -2.265625 h 11.8125 v 2.265625 H 7.890625 V 0 Z m 0,0"
           id="path100"
           style="fill:#ffffff" />
      </g>
    </g>
  </g>
  <g
     fill="#1e3148"
     fill-opacity="1"
     id="g114"
     transform="translate(-37.523438,-126.89063)"
     style="fill:#ffffff">
    <g
       transform="translate(164.2161,229.78913)"
       id="g112"
       style="fill:#ffffff">
      <g
         id="g110"
         style="fill:#ffffff">
        <path
           d="m 1.5,0 v -15.40625 h 10.046875 v 2.265625 H 4.3125 v 4.234375 h 6.578125 v 2.203125 H 4.3125 v 4.4375 h 7.234375 V 0 Z m 0,0"
           id="path108"
           style="fill:#ffffff" />
      </g>
    </g>
  </g>
  <g
     fill="#1e3148"
     fill-opacity="1"
     id="g122"
     transform="translate(-37.523438,-126.89063)"
     style="fill:#ffffff">
    <g
       transform="translate(176.92983,229.78913)"
       id="g120"
       style="fill:#ffffff">
      <g
         id="g118"
         style="fill:#ffffff">
        <path
           d="m 1.5,0 v -15.40625 h 2.8125 l 7.234375,10.859375 V -15.40625 h 2.8125 V 0 h -2.8125 L 4.3125,-10.828125 V 0 Z m 0,0"
           id="path116"
           style="fill:#ffffff" />
      </g>
    </g>
  </g>
  <g
     fill="#1e3148"
     fill-opacity="1"
     id="g130"
     transform="translate(-37.523438,-126.89063)"
     style="fill:#ffffff">
    <g
       transform="translate(192.78901,229.78913)"
       id="g128"
       style="fill:#ffffff">
      <g
         id="g126"
         style="fill:#ffffff">
        <path
           d="m 1.5,0 v -15.40625 h 2.8125 l 7.234375,10.859375 V -15.40625 h 2.8125 V 0 h -2.8125 L 4.3125,-10.828125 V 0 Z m 0,0"
           id="path124"
           style="fill:#ffffff" />
      </g>
    </g>
  </g>
  <g
     fill="#1e3148"
     fill-opacity="1"
     id="g138"
     transform="translate(-37.523438,-126.89063)"
     style="fill:#ffffff">
    <g
       transform="translate(208.64819,229.78913)"
       id="g136"
       style="fill:#ffffff">
      <g
         id="g134"
         style="fill:#ffffff">
        <path
           d="M 1.5,0 V -15.40625 H 4.3125 V 0 Z m 0,0"
           id="path132"
           style="fill:#ffffff" />
      </g>
    </g>
  </g>
  <g
     fill="#1e3148"
     fill-opacity="1"
     id="g146"
     transform="translate(-37.523438,-126.89063)"
     style="fill:#ffffff">
    <g
       transform="translate(214.45515,229.78913)"
       id="g144"
       style="fill:#ffffff">
      <g
         id="g142"
         style="fill:#ffffff">
        <path
           d="M 6.75,0.265625 C 5.625,0.265625 4.628906,0.0703125 3.765625,-0.3125 2.898438,-0.707031 2.21875,-1.265625 1.71875,-1.984375 c -0.5,-0.726563 -0.757812,-1.613281 -0.765625,-2.65625 h 2.96875 c 0.019531,0.71875 0.273437,1.324219 0.765625,1.8125 0.5,0.492187 1.179688,0.734375 2.046875,0.734375 0.75,0 1.34375,-0.175781 1.78125,-0.53125 0.4375,-0.363281 0.65625,-0.84375 0.65625,-1.4375 0,-0.632812 -0.195313,-1.128906 -0.578125,-1.484375 C 8.207031,-5.898438 7.691406,-6.1875 7.046875,-6.40625 6.398438,-6.625 5.707031,-6.859375 4.96875,-7.109375 3.78125,-7.515625 2.875,-8.039062 2.25,-8.6875 1.625,-9.332031 1.3125,-10.191406 1.3125,-11.265625 c -0.011719,-0.90625 0.207031,-1.6875 0.65625,-2.34375 0.445312,-0.65625 1.054688,-1.160156 1.828125,-1.515625 0.78125,-0.351562 1.675781,-0.53125 2.6875,-0.53125 1.03125,0 1.9375,0.183594 2.71875,0.546875 0.789063,0.367187 1.40625,0.882813 1.84375,1.546875 0.445313,0.65625 0.6875,1.4375 0.71875,2.34375 H 8.75 c -0.011719,-0.539062 -0.21875,-1.019531 -0.625,-1.4375 -0.398438,-0.414062 -0.953125,-0.625 -1.671875,-0.625 -0.625,-0.01953 -1.148437,0.132812 -1.5625,0.453125 -0.417969,0.3125 -0.625,0.765625 -0.625,1.359375 0,0.523438 0.160156,0.933594 0.484375,1.234375 0.320312,0.292969 0.757812,0.542969 1.3125,0.75 0.5625,0.210937 1.203125,0.429687 1.921875,0.65625 0.757813,0.273437 1.453125,0.585937 2.078125,0.9375 0.632812,0.34375 1.144531,0.808594 1.53125,1.390625 0.382812,0.585938 0.578125,1.328125 0.578125,2.234375 0,0.804687 -0.210937,1.554687 -0.625,2.25 -0.40625,0.6875 -1.015625,1.242187 -1.828125,1.65625 -0.804688,0.4140625 -1.792969,0.625 -2.96875,0.625 z m 0,0"
           id="path140"
           style="fill:#ffffff" />
      </g>
    </g>
  </g>
  <g
     fill="#1e3148"
     fill-opacity="1"
     id="g152"
     transform="translate(-37.523438,-126.89063)">
    <g
       transform="translate(227.58681,229.78913)"
       id="g150">
      <g
         id="g148" />
    </g>
  </g>
  <g
     fill="#1e3148"
     fill-opacity="1"
     id="g160"
     transform="translate(-37.523438,-126.89063)"
     style="fill:#ffffff">
    <g
       transform="translate(232.82187,229.78913)"
       id="g158"
       style="fill:#ffffff">
      <g
         id="g156"
         style="fill:#ffffff">
        <path
           d="m 8.46875,0.265625 c -1.554688,0 -2.886719,-0.3320312 -4,-1 C 3.351562,-1.398438 2.492188,-2.332031 1.890625,-3.53125 1.285156,-4.726562 0.984375,-6.109375 0.984375,-7.671875 c 0,-1.570313 0.300781,-2.957031 0.90625,-4.15625 0.601563,-1.207031 1.460937,-2.144531 2.578125,-2.8125 1.113281,-0.675781 2.445312,-1.015625 4,-1.015625 1.84375,0 3.351562,0.460938 4.53125,1.375 1.1875,0.917969 1.925781,2.203125 2.21875,3.859375 H 12.125 c -0.1875,-0.84375 -0.59375,-1.5 -1.21875,-1.96875 -0.625,-0.476563 -1.453125,-0.71875 -2.484375,-0.71875 -1.417969,0 -2.53125,0.484375 -3.34375,1.453125 C 4.273438,-10.6875 3.875,-9.359375 3.875,-7.671875 c 0,1.6875 0.398438,3.011719 1.203125,3.96875 0.8125,0.960937 1.925781,1.4375 3.34375,1.4375 1.03125,0 1.859375,-0.222656 2.484375,-0.671875 0.625,-0.445312 1.03125,-1.066406 1.21875,-1.859375 h 3.09375 C 14.925781,-3.210938 14.1875,-1.972656 13,-1.078125 c -1.179688,0.898437 -2.6875,1.34375 -4.53125,1.34375 z m 0,0"
           id="path154"
           style="fill:#ffffff" />
      </g>
    </g>
  </g>
  <g
     fill="#1e3148"
     fill-opacity="1"
     id="g168"
     transform="translate(-37.523438,-126.89063)"
     style="fill:#ffffff">
    <g
       transform="translate(249.03299,229.78913)"
       id="g166"
       style="fill:#ffffff">
      <g
         id="g164"
         style="fill:#ffffff">
        <path
           d="M 1.5,0 V -15.40625 H 4.3125 V -2.203125 H 11.125 V 0 Z m 0,0"
           id="path162"
           style="fill:#ffffff" />
      </g>
    </g>
  </g>
  <g
     fill="#1e3148"
     fill-opacity="1"
     id="g176"
     transform="translate(-37.523438,-126.89063)"
     style="fill:#ffffff">
    <g
       transform="translate(261.15283,229.78913)"
       id="g174"
       style="fill:#ffffff">
      <g
         id="g172"
         style="fill:#ffffff">
        <path
           d="M 7.4375,0.265625 C 6.300781,0.265625 5.28125,0.0390625 4.375,-0.40625 3.46875,-0.851562 2.742188,-1.53125 2.203125,-2.4375 1.671875,-3.351562 1.40625,-4.503906 1.40625,-5.890625 v -9.515625 h 2.8125 V -5.875 c 0,1.210938 0.289062,2.105469 0.875,2.6875 0.582031,0.585938 1.382812,0.875 2.40625,0.875 1.007812,0 1.804688,-0.289062 2.390625,-0.875 0.59375,-0.582031 0.890625,-1.476562 0.890625,-2.6875 v -9.53125 h 2.8125 v 9.515625 c 0,1.386719 -0.28125,2.539063 -0.84375,3.453125 -0.554688,0.90625 -1.296875,1.585938 -2.234375,2.03125 C 9.585938,0.0390625 8.5625,0.265625 7.4375,0.265625 Z m 0,0"
           id="path170"
           style="fill:#ffffff" />
      </g>
    </g>
  </g>
  <g
     fill="#1e3148"
     fill-opacity="1"
     id="g184"
     transform="translate(-37.523438,-126.89063)"
     style="fill:#ffffff">
    <g
       transform="translate(276.13216,229.78913)"
       id="g182"
       style="fill:#ffffff">
      <g
         id="g180"
         style="fill:#ffffff">
        <path
           d="m 1.5,0 v -15.40625 h 6.171875 c 1.601563,0 2.828125,0.375 3.671875,1.125 0.84375,0.742188 1.265625,1.6875 1.265625,2.84375 0,0.96875 -0.261719,1.746094 -0.78125,2.328125 -0.523437,0.574219 -1.15625,0.964844 -1.90625,1.171875 0.875,0.179688 1.597656,0.617188 2.171875,1.3125 0.570312,0.6875 0.859375,1.496094 0.859375,2.421875 0,1.21875 -0.445313,2.226563 -1.328125,3.015625 C 10.75,-0.394531 9.503906,0 7.890625,0 Z m 2.8125,-8.9375 h 2.953125 c 0.789063,0 1.394531,-0.179688 1.8125,-0.546875 0.425781,-0.363281 0.640625,-0.882813 0.640625,-1.5625 0,-0.644531 -0.210938,-1.15625 -0.625,-1.53125 -0.417969,-0.375 -1.042969,-0.5625 -1.875,-0.5625 H 4.3125 Z m 0,6.65625 h 3.140625 c 0.84375,0 1.492187,-0.191406 1.953125,-0.578125 0.457031,-0.394531 0.6875,-0.945313 0.6875,-1.65625 0,-0.71875 -0.246094,-1.28125 -0.734375,-1.6875 C 8.878906,-6.609375 8.226562,-6.8125 7.40625,-6.8125 H 4.3125 Z m 0,0"
           id="path178"
           style="fill:#ffffff" />
      </g>
    </g>
  </g>

</svg>
